<svg version="1.1" xmlns="http://www.w3.org/2000/svg" height="16" width="16" viewBox="0 0 1207.76 1177.927" overflow="visible" xml:space="preserve">
<g>
<path fill="#1b1817" d="M 603.88,0 C 270.41,0 0,270.35 0,603.87 c 0,266.81 173.03,493.17 412.97,573.021 30.18,5.59 41.26,-13.101 41.26,-29.051 0,-14.402 -0.56,-61.968 -0.82,-112.429 -168,36.527 -203.45,-71.25 -203.45,-71.25 -27.47,-69.801 -67.05,-88.363 -67.05,-88.363 -54.79,-37.481 4.13,-36.711 4.13,-36.711 60.64,4.257 92.57,62.238 92.57,62.238 53.86,92.316 141.27,65.625 175.73,50.195 5.42,-39.023 21.07,-65.676 38.34,-80.754 C 359.55,855.505 218.55,803.715 218.55,572.33 c 0,-65.93 23.59,-119.8 62.22,-162.09 -6.27,-15.22 -26.94,-76.63 5.85,-159.81 0,0 50.72,-16.23 166.11,61.91 48.17,-13.39 99.83,-20.1 151.15,-20.33 51.32,0.23 103.02,6.94 151.28,20.33 115.26,-78.14 165.9,-61.91 165.9,-61.91 32.87,83.18 12.19,144.59 5.92,159.81 38.73,42.29 62.15,96.16 62.15,162.09 0,231.944 -141.27,283.007 -275.74,297.96 21.66,18.738 40.96,55.488 40.96,111.832 0,80.797 -0.7,145.828 -0.7,165.718 0,16.071 10.87,34.899 41.48,28.969 C 1034.94,1096.872 1207.76,870.59 1207.76,603.87 1207.76,270.35 937.38,0 603.88,0" />
	<path fill="#1b1817" d="m 228.72,867.028 c -1.33,3.008 -6.05,3.906 -10.35,1.844 -4.38,-1.973 -6.83,-6.063 -5.42,-9.071 1.3,-3.086 6.03,-3.945 10.4,-1.886 4.39,1.972 6.89,6.105 5.37,9.113 l 0,0" />
	<path fill="#1b1817" d="m 253.19,894.313 c -2.89,2.664 -8.52,1.426 -12.34,-2.793 -3.95,-4.211 -4.69,-9.844 -1.77,-12.551 2.97,-2.664 8.43,-1.414 12.39,2.793 3.95,4.258 4.72,9.844 1.72,12.551 l 0,0" />
	<path fill="#1b1817" d="m 276.99,929.087 c -3.7,2.578 -9.75,0.168 -13.49,-5.204 -3.7,-5.371 -3.7,-11.816 0.09,-14.394 3.74,-2.578 9.7,-0.254 13.49,5.066 3.69,5.461 3.69,11.907 -0.09,14.532 l 0,0" />
	<path fill="#1b1817" d="m 309.61,962.688 c -3.31,3.652 -10.36,2.672 -15.52,-2.308 -5.28,-4.872 -6.74,-11.782 -3.43,-15.43 3.36,-3.66 10.45,-2.629 15.64,2.308 5.24,4.864 6.84,11.821 3.31,15.43 l 0,0" />
	<path fill="#1b1817" d="m 354.61,982.2 c -1.46,4.73 -8.25,6.879 -15.09,4.871 -6.83,-2.07 -11.3,-7.609 -9.92,-12.391 1.42,-4.761 8.24,-7 15.13,-4.851 6.82,2.062 11.3,7.562 9.88,12.371 l 0,0" />
	<path fill="#1b1817" d="m 404.04,985.821 c 0.16,4.98 -5.64,9.109 -12.82,9.199 -7.21,0.16 -13.06,-3.871 -13.14,-8.769 0,-5.032 5.67,-9.121 12.89,-9.243 7.18,-0.136 13.07,3.864 13.07,8.813 l 0,0" />
	<path fill="#1b1817" d="m 450.02,977.989 c 0.86,4.859 -4.13,9.851 -11.26,11.18 -7.01,1.281 -13.49,-1.719 -14.39,-6.539 -0.87,-4.981 4.21,-9.969 11.21,-11.258 7.14,-1.242 13.53,1.679 14.44,6.617 l 0,0" />
</g>
</svg>